<?xml version="1.0" encoding="UTF-8" standalone="no"?>
<!DOCTYPE svg PUBLIC "-//W3C//DTD SVG 1.1//EN" "http://www.w3.org/Graphics/SVG/1.1/DTD/svg11.dtd">
<svg xmlns="http://www.w3.org/2000/svg" version="1.1" viewBox="0.00 0.00 512.00 512.00">
<path fill="#000000" d="
  M 75.08 0.00
  L 137.01 0.00
  Q 146.38 1.54 149.51 8.74
  Q 151.08 12.37 151.05 19.04
  Q 150.95 41.66 150.99 60.74
  A 0.28 0.27 -90.0 0 1 150.72 61.02
  L 61.69 61.02
  A 0.73 0.72 90.0 0 1 60.97 60.29
  Q 61.04 41.34 60.98 16.01
  C 60.96 7.29 66.09 1.40 75.08 0.00
  Z"
/>
<path fill="#000000" d="
  M 255.08 0.00
  L 257.01 0.00
  Q 268.85 0.86 276.75 8.51
  Q 282.65 14.21 284.78 21.96
  Q 286.04 26.50 286.03 34.58
  Q 285.85 179.56 286.04 322.25
  Q 286.05 335.51 284.53 339.95
  C 276.42 363.61 245.98 368.56 231.32 347.90
  Q 225.99 340.40 225.99 330.13
  Q 225.98 180.78 225.99 30.62
  Q 226.00 21.35 231.00 13.50
  Q 238.86 1.17 255.08 0.00
  Z"
/>
<path fill="#000000" d="
  M 383.14 204.52
  C 399.08 203.29 402.83 181.66 387.84 175.68
  Q 351.58 161.22 318.56 148.13
  A 0.43 0.43 0.0 0 1 318.43 147.42
  L 337.85 129.38
  A 0.79 0.79 0.0 0 1 338.69 129.22
  Q 376.78 144.25 418.45 160.77
  Q 422.16 162.24 425.67 162.05
  C 435.25 161.51 441.82 152.31 439.06 142.95
  C 437.39 137.28 433.77 134.54 428.22 132.37
  Q 397.50 120.39 364.90 107.38
  A 0.15 0.15 0.0 0 1 364.86 107.13
  Q 385.01 91.76 405.55 80.09
  Q 419.17 72.35 435.33 66.51
  C 449.61 61.34 466.11 58.06 480.60 61.51
  C 499.06 65.89 510.10 80.14 511.61 98.61
  Q 511.91 102.27 511.83 106.18
  C 511.62 116.11 509.03 126.59 505.70 135.94
  C 497.86 157.94 486.18 178.22 472.12 197.22
  C 465.26 206.50 458.01 216.06 450.39 224.77
  Q 443.38 232.78 436.46 240.65
  Q 436.15 241.00 435.69 241.00
  L 316.48 241.00
  Q 315.96 241.00 315.96 240.48
  L 315.96 179.95
  Q 315.96 179.28 316.59 179.53
  Q 344.53 190.63 377.31 203.66
  Q 380.05 204.75 383.14 204.52
  Z"
/>
<path fill="#000000" d="
  M 156.99 134.44
  C 116.60 155.62 91.62 194.68 91.02 240.46
  Q 91.01 241.00 90.47 241.00
  L 31.79 241.00
  A 0.77 0.77 0.0 0 1 31.02 240.23
  Q 30.96 213.13 31.03 187.66
  Q 31.09 166.01 43.39 148.73
  C 46.40 144.50 51.95 139.25 54.57 135.31
  Q 60.65 126.15 60.89 115.38
  Q 61.13 104.48 60.97 92.30
  Q 60.95 91.01 62.23 91.01
  L 150.71 91.01
  A 0.22 0.21 0.0 0 1 150.93 91.22
  Q 151.11 99.66 150.94 108.76
  Q 150.78 116.89 151.82 121.48
  Q 153.21 127.57 157.17 133.74
  A 0.49 0.49 0.0 0 1 156.99 134.44
  Z"
/>
<path fill="#000000" d="
  M 121.02 240.73
  C 121.38 196.53 152.75 160.57 195.55 152.62
  A 0.37 0.37 0.0 0 1 195.99 152.98
  L 195.99 240.01
  Q 195.99 241.00 194.99 241.00
  L 121.29 241.00
  Q 121.02 241.00 121.02 240.73
  Z"
/>
<path fill="#000000" d="
  M 0.00 302.18
  L 0.00 299.70
  Q 1.20 284.69 12.91 276.40
  C 19.29 271.88 26.04 270.94 34.47 270.95
  Q 115.33 271.05 195.46 270.99
  A 0.53 0.52 -0.0 0 1 195.99 271.51
  L 195.99 330.00
  A 1.00 0.99 -0.3 0 1 195.00 330.99
  Q 111.00 331.01 31.29 331.00
  C 22.59 331.00 14.73 328.11 8.67 321.94
  Q 0.94 314.06 0.00 302.18
  Z"
/>
<path fill="#000000" d="
  M 315.95 271.44
  A 0.49 0.49 0.0 0 1 316.44 270.95
  L 481.26 270.95
  A 30.57 29.96 0.0 0 1 511.83 300.91
  L 511.83 301.09
  A 30.57 29.96 0.0 0 1 481.26 331.05
  L 316.44 331.05
  A 0.49 0.49 0.0 0 1 315.95 330.56
  L 315.95 271.44
  Z"
/>
<path fill="#000000" d="
  M 387.98 512.00
  L 123.70 512.00
  Q 96.53 510.81 76.87 493.88
  Q 56.29 476.15 51.55 447.45
  Q 44.61 405.42 37.36 361.47
  Q 37.28 360.98 37.77 360.98
  L 203.79 360.98
  A 1.03 1.03 0.0 0 1 204.68 361.49
  Q 213.07 375.16 225.73 382.50
  Q 247.97 395.40 272.24 388.54
  Q 294.13 382.36 307.29 361.48
  A 1.06 1.06 0.0 0 1 308.19 360.98
  L 473.97 360.98
  Q 474.61 360.98 474.51 361.61
  Q 467.14 406.57 460.08 448.96
  C 454.06 485.12 424.52 510.41 387.98 512.00
  Z"
/>
</svg>
