<?xml version="1.0" encoding="UTF-8" standalone="no"?>
<!DOCTYPE svg PUBLIC "-//W3C//DTD SVG 1.1//EN" "http://www.w3.org/Graphics/SVG/1.1/DTD/svg11.dtd">
<svg xmlns="http://www.w3.org/2000/svg" version="1.1" viewBox="0.00 0.00 512.00 512.00">
<ellipse fill="#000000" cx="0.00" cy="0.00" transform="translate(199.62,117.69) rotate(90.0)" rx="85.62" ry="75.13"/>
<ellipse fill="#000000" cx="0.00" cy="0.00" transform="translate(354.26,149.87) rotate(108.6)" rx="78.46" ry="69.01"/>
<path fill="#000000" d="
  M 0.00 200.15
  L 0.00 194.21
  Q 0.87 174.99 10.33 159.32
  C 24.30 136.17 51.51 125.93 77.33 133.46
  C 104.99 141.54 124.40 166.21 129.78 193.96
  C 135.88 225.48 122.95 258.68 92.05 271.13
  Q 83.16 274.72 72.34 274.88
  Q 56.14 275.13 41.65 267.41
  Q 21.89 256.88 10.71 237.05
  Q 1.06 219.91 0.00 200.15
  Z"
/>
<path fill="#000000" d="
  M 512.00 262.27
  L 512.00 267.81
  Q 509.97 298.28 488.84 320.09
  Q 476.94 332.38 461.04 338.53
  C 442.17 345.82 420.72 344.93 403.80 333.86
  C 381.71 319.41 372.95 292.60 378.25 266.99
  C 385.22 233.36 412.91 206.27 447.77 203.30
  C 469.02 201.49 489.55 211.12 501.40 228.59
  Q 511.14 242.94 512.00 262.27
  Z"
/>
<path fill="#000000" d="
  M 397.61 357.50
  C 425.52 401.04 405.40 459.06 356.47 475.31
  Q 336.54 481.93 315.79 477.83
  C 303.28 475.35 291.35 468.84 278.67 465.42
  Q 234.38 453.46 190.22 467.16
  C 181.30 469.93 171.16 475.03 161.43 477.31
  C 114.03 488.45 68.49 454.56 64.78 406.65
  Q 63.16 385.79 71.80 367.34
  Q 74.14 362.36 81.97 350.13
  Q 107.19 310.78 132.41 271.42
  Q 156.18 234.34 200.76 219.47
  Q 205.40 217.92 210.77 217.00
  C 215.27 216.24 219.92 214.99 224.43 214.59
  Q 263.70 211.08 297.48 229.44
  Q 301.18 231.44 307.23 235.41
  C 311.28 238.06 314.71 241.02 318.38 244.00
  C 323.64 248.28 328.57 253.70 333.06 258.78
  Q 337.70 264.03 342.39 271.36
  Q 369.78 314.07 397.61 357.50
  Z"
/>
</svg>
