<?xml version="1.0" encoding="UTF-8" standalone="no"?>
<!DOCTYPE svg PUBLIC "-//W3C//DTD SVG 1.1//EN" "http://www.w3.org/Graphics/SVG/1.1/DTD/svg11.dtd">
<svg xmlns="http://www.w3.org/2000/svg" version="1.1" viewBox="0.00 0.00 512.00 512.00">
<path fill="#000000" d="
  M 255.79 0.00
  L 258.33 0.00
  C 261.18 0.51 264.30 0.59 266.85 1.19
  C 284.18 5.24 297.51 18.82 300.97 36.32
  Q 303.76 50.44 298.00 64.87
  Q 297.64 65.76 298.59 65.94
  C 319.73 69.90 340.89 77.05 360.02 87.14
  Q 417.61 117.53 450.63 173.30
  C 468.16 202.91 478.81 237.25 481.01 271.53
  A 0.50 0.49 88.7 0 0 481.49 272.00
  C 487.81 272.26 495.78 271.25 501.39 272.84
  Q 510.49 275.41 512.00 286.10
  L 512.00 287.30
  Q 510.60 297.12 503.17 300.27
  Q 499.75 301.72 489.13 301.72
  Q 252.56 301.70 16.00 301.72
  Q 1.95 301.72 0.00 287.18
  L 0.00 285.96
  C 1.66 274.60 9.50 271.72 19.64 272.02
  Q 25.34 272.20 30.51 272.00
  A 0.48 0.48 0.0 0 0 30.98 271.55
  Q 34.70 220.01 60.78 175.19
  Q 65.90 166.40 71.60 158.44
  Q 109.97 104.89 170.75 79.23
  C 184.92 73.24 199.80 69.01 215.35 65.93
  Q 216.35 65.73 215.97 64.78
  C 208.61 46.25 211.81 25.80 226.49 12.14
  Q 238.34 1.12 255.79 0.00
  Z
  M 263.26 59.96
  C 272.86 54.49 275.06 41.40 266.78 33.72
  C 262.52 29.77 255.39 28.90 250.28 31.68
  Q 241.22 36.62 242.21 46.98
  C 243.15 56.78 253.66 65.44 263.26 59.96
  Z"
/>
<path fill="#000000" d="
  M 293.69 512.00
  L 120.03 512.00
  Q 120.00 435.62 120.08 359.25
  Q 120.09 349.17 125.82 342.66
  Q 130.30 337.58 139.61 333.81
  Q 158.45 326.19 175.78 325.71
  Q 222.72 324.41 255.90 356.21
  C 258.24 358.45 261.53 361.15 264.76 361.59
  Q 268.13 362.04 271.56 362.04
  Q 287.64 362.04 301.28 362.13
  Q 314.97 362.23 323.68 371.39
  C 339.02 387.53 331.71 414.30 310.23 420.43
  Q 305.79 421.70 297.12 421.70
  Q 277.90 421.71 259.67 421.62
  Q 252.70 421.58 249.89 422.82
  C 237.75 428.17 237.78 445.78 250.20 450.59
  Q 253.30 451.79 259.61 451.75
  Q 278.96 451.62 293.39 451.66
  Q 313.58 451.72 328.63 441.19
  Q 333.59 437.72 343.33 428.00
  Q 378.69 392.69 417.18 354.34
  Q 425.97 345.59 430.11 343.53
  C 443.74 336.77 459.67 340.42 468.45 352.90
  Q 475.78 363.32 473.21 376.04
  C 471.68 383.58 467.43 388.62 462.04 394.02
  Q 397.31 458.88 379.15 476.79
  C 358.65 497.02 331.56 509.91 302.55 511.47
  Q 298.12 511.71 293.69 512.00
  Z"
/>
<path fill="#000000" d="
  M 89.99 512.00
  L 45.92 512.00
  C 35.91 511.39 30.00 505.40 30.00 495.85
  Q 30.03 437.33 30.02 379.77
  Q 30.02 373.19 31.34 370.48
  C 34.75 363.55 40.19 361.64 47.94 361.67
  Q 68.81 361.75 89.38 361.68
  Q 89.96 361.68 89.96 362.26
  L 89.99 512.00
  Z"
/>
</svg>
